<svg width="610" height="610" viewBox="0 0 610 610" fill="none" xmlns="http://www.w3.org/2000/svg">
<path d="M239.579 -6.20749e-06L369.756 -5.17291e-07C376.291 -2.31599e-07 381.59 5.29837 381.59 11.8342L381.59 195.911C381.59 199.266 380.166 202.463 377.672 204.708L323.057 253.862C322.632 254.244 322.18 254.6 321.695 254.903C308.68 263.024 291.687 259.076 283.027 255.372C281.666 254.789 280.49 253.871 279.5 252.77L230.783 198.64C228.827 196.467 227.745 193.647 227.745 190.724L227.745 11.8342C227.745 5.29836 233.043 -6.49318e-06 239.579 -6.20749e-06Z" fill="#F37F55" fill-opacity="0.15"/>
<circle cx="305.376" cy="201.185" r="17.7513" transform="rotate(90 305.376 201.185)" fill="#CCCCCC" fill-opacity="0.2"/>
<path d="M369.741 609.309L239.565 609.309C233.029 609.309 227.73 604.01 227.73 597.474L227.73 413.397C227.73 410.042 229.154 406.845 231.648 404.601L286.264 355.447C286.688 355.065 287.14 354.708 287.625 354.406C300.641 346.285 317.634 350.232 326.293 353.937C327.655 354.519 328.83 355.438 329.821 356.539L378.538 410.668C380.493 412.841 381.575 415.661 381.575 418.585L381.575 597.474C381.575 604.01 376.277 609.309 369.741 609.309Z" fill="#F37F55" fill-opacity="0.15"/>
<circle cx="303.96" cy="408.121" r="17.7513" transform="rotate(-90 303.96 408.121)" fill="#CCCCCC" fill-opacity="0.2"/>
<path d="M0 369.746L0 239.57C0 233.034 5.29837 227.735 11.8342 227.735L195.911 227.735C199.266 227.735 202.463 229.159 204.708 231.653L253.862 286.268C254.244 286.693 254.6 287.145 254.903 287.63C263.024 300.646 259.076 317.639 255.372 326.298C254.789 327.659 253.871 328.835 252.77 329.826L198.64 378.542C196.467 380.498 193.647 381.58 190.724 381.58L11.8342 381.58C5.29837 381.58 0 376.282 0 369.746Z" fill="#F37F55" fill-opacity="0.15"/>
<circle cx="201.185" cy="303.963" r="17.7513" fill="#CCCCCC" fill-opacity="0.2"/>
<path d="M609.336 239.563L609.336 369.739C609.336 376.275 604.038 381.573 597.502 381.573L413.425 381.573C410.07 381.573 406.873 380.149 404.628 377.656L355.474 323.04C355.092 322.615 354.736 322.163 354.433 321.678C346.312 308.663 350.26 291.67 353.964 283.011C354.546 281.649 355.465 280.474 356.566 279.483L410.696 230.766C412.869 228.81 415.689 227.728 418.612 227.728L597.502 227.728C604.038 227.728 609.336 233.027 609.336 239.563Z" fill="#F37F55" fill-opacity="0.15"/>
<circle cx="408.128" cy="305.344" r="17.7513" transform="rotate(180 408.128 305.344)" fill="#CCCCCC" fill-opacity="0.2"/>
<path d="M43.218 135.248L135.267 43.1991C139.888 38.5776 147.381 38.5776 152.003 43.1991L282.165 173.361C284.537 175.734 285.791 179.001 285.615 182.351L281.753 255.728C281.723 256.298 281.655 256.87 281.526 257.426C278.065 272.372 263.258 281.597 254.516 285.1C253.141 285.651 251.66 285.833 250.181 285.755L177.458 281.928C174.538 281.774 171.779 280.545 169.712 278.478L43.218 151.984C38.5965 147.362 38.5965 139.869 43.218 135.248Z" fill="#F37F55" fill-opacity="0.15"/>
<circle cx="231.977" cy="230.992" r="17.7513" transform="rotate(45 231.977 230.992)" fill="#CCCCCC" fill-opacity="0.2"/>
<path d="M566.118 474.061L474.069 566.109C469.448 570.731 461.955 570.731 457.333 566.109L327.171 435.947C324.799 433.575 323.545 430.307 323.721 426.957L327.583 353.581C327.613 353.01 327.681 352.439 327.81 351.882C331.271 336.936 346.078 327.712 354.82 324.208C356.195 323.657 357.676 323.476 359.154 323.553L431.878 327.381C434.798 327.535 437.557 328.764 439.624 330.831L566.118 457.325C570.739 461.946 570.739 469.439 566.118 474.061Z" fill="#F37F55" fill-opacity="0.15"/>
<circle cx="377.348" cy="378.316" r="17.7513" transform="rotate(-135 377.348 378.316)" fill="#CCCCCC" fill-opacity="0.2"/>
<path d="M135.266 566.119L43.2177 474.07C38.5961 469.449 38.5961 461.956 43.2177 457.334L173.38 327.172C175.752 324.8 179.02 323.546 182.37 323.722L255.746 327.584C256.317 327.614 256.888 327.682 257.445 327.811C272.391 331.272 281.615 346.079 285.119 354.821C285.67 356.196 285.852 357.676 285.774 359.155L281.946 431.879C281.792 434.798 280.564 437.558 278.496 439.625L152.003 566.119C147.381 570.74 139.888 570.74 135.266 566.119Z" fill="#F37F55" fill-opacity="0.15"/>
<circle cx="231.022" cy="377.341" r="17.7513" transform="rotate(-45 231.022 377.341)" fill="#CCCCCC" fill-opacity="0.2"/>
<path d="M474.07 43.1897L566.118 135.238C570.74 139.86 570.74 147.353 566.118 151.975L435.956 282.137C433.584 284.509 430.316 285.763 426.966 285.587L353.59 281.725C353.019 281.695 352.448 281.627 351.891 281.498C336.945 278.037 327.721 263.23 324.217 254.488C323.666 253.113 323.484 251.632 323.562 250.153L327.39 177.43C327.543 174.51 328.772 171.751 330.84 169.684L457.333 43.1897C461.955 38.5681 469.448 38.5682 474.07 43.1897Z" fill="#F37F55" fill-opacity="0.15"/>
<circle cx="378.304" cy="231.967" r="17.7513" transform="rotate(135 378.304 231.967)" fill="#CCCCCC" fill-opacity="0.2"/>
</svg>
