<svg width="742" height="741" viewBox="0 0 742 741" fill="none" xmlns="http://www.w3.org/2000/svg">
<ellipse cx="26.1862" cy="26.2176" rx="26.1862" ry="26.2176" transform="matrix(-0.125114 0.992142 0.99218 0.124818 313.805 619.984)" fill="#333333" fill-opacity="0.2"/>
<path d="M354.812 269.267L330.747 460.107C329.551 469.587 320.896 476.305 311.416 475.113L82.3969 446.302C77.1007 445.636 72.4094 442.562 69.6841 437.973L17.5359 350.164C8.87833 329.543 17.2623 304.541 23.6717 292.265C24.6281 290.434 26.0035 288.875 27.61 287.576L104.154 225.653C107.816 222.691 112.527 221.349 117.199 221.937L339.811 249.941C349.292 251.134 356.008 259.786 354.812 269.267Z" fill="#F16D3E" fill-opacity="0.15"/>
<ellipse cx="26.2168" cy="26.1871" rx="26.2168" ry="26.1871" transform="matrix(-0.99218 -0.124817 0.125113 -0.992142 114.344 363.374)" fill="#333333" fill-opacity="0.2"/>
<path d="M469.856 354.388L278.746 330.347C269.265 329.154 262.549 320.502 263.744 311.021L292.585 82.3197C293.253 77.017 296.335 72.3202 300.934 69.5955L388.841 17.515C409.49 8.86667 434.526 17.2439 446.814 23.6459C448.645 24.5996 450.203 25.9716 451.503 27.5746L513.494 104.02C516.464 107.683 517.81 112.4 517.22 117.079L489.187 339.382C487.991 348.863 479.336 355.581 469.856 354.388Z" fill="#F16D3E" fill-opacity="0.15"/>
<ellipse cx="26.1862" cy="26.2176" rx="26.1862" ry="26.2176" transform="matrix(0.125114 -0.992142 0.99218 0.124817 375.624 114.215)" fill="#333333" fill-opacity="0.2"/>
<path d="M464.735 410.653L273.625 386.612C264.145 385.419 255.49 392.137 254.294 401.618L225.454 630.319C224.785 635.622 226.605 640.935 230.384 644.714L302.615 716.94C320.472 730.433 346.806 728.518 360.3 725.359C362.31 724.889 364.16 723.945 365.817 722.714L444.852 664.01C448.639 661.197 451.113 656.961 451.703 652.282L479.737 429.979C480.932 420.498 474.216 411.846 464.735 410.653Z" fill="#F16D3E" fill-opacity="0.15"/>
<path d="M410.697 278.252L386.631 469.092C385.435 478.573 392.152 487.225 401.632 488.417L630.651 517.228C635.947 517.895 641.255 516.079 645.035 512.308L717.355 440.157C730.861 422.324 728.947 396.027 725.785 382.547C725.313 380.536 724.368 378.686 723.134 377.029L664.354 298.082C661.542 294.306 657.311 291.839 652.639 291.251L430.027 263.246C420.547 262.053 411.892 268.772 410.697 278.252Z" fill="#F16D3E" fill-opacity="0.15"/>
<ellipse cx="26.2168" cy="26.1871" rx="26.2168" ry="26.1871" transform="matrix(0.99218 0.124817 0.125114 -0.992142 620.267 428.977)" fill="#333333" fill-opacity="0.2"/>
</svg>
