<svg width="458" height="472" viewBox="0 0 458 472" fill="none" xmlns="http://www.w3.org/2000/svg">
<path d="M400.745 409.236L301.977 466.26C297.018 469.123 290.677 467.424 287.814 462.465L223.318 350.755C221.673 347.905 221.478 344.443 222.793 341.427L246.459 287.157C253.282 275.947 268.05 270.803 276.083 269.305C277.274 269.083 278.492 269.146 279.676 269.405L335.082 281.535C337.931 282.159 340.385 283.954 341.844 286.479L404.54 395.073C407.403 400.032 405.704 406.373 400.745 409.236Z" fill="#F16D3E" fill-opacity="0.15"/>
<path d="M167.466 5.18396L68.6977 62.208C63.7388 65.071 62.0397 71.412 64.9027 76.3709L133.499 195.183C135.097 197.951 137.882 199.827 141.048 200.268L201.127 208.638C214.406 208.637 226.152 198.301 231.399 191.961C232.189 191.007 232.729 189.884 233.073 188.694L249.289 132.529C250.071 129.82 249.717 126.91 248.307 124.469L181.629 8.97892C178.766 4.01998 172.425 2.32091 167.466 5.18396Z" fill="#F16D3E" fill-opacity="0.15"/>
<path d="M452.78 188.342L395.756 89.5733C392.893 84.6144 386.552 82.9153 381.593 85.7784L262.781 154.375C260.013 155.973 258.137 158.758 257.696 161.923L249.327 222.002C249.327 235.282 259.663 247.028 266.003 252.274C266.957 253.064 268.08 253.605 269.27 253.948L325.435 270.165C328.144 270.947 331.054 270.592 333.495 269.183L448.985 202.505C453.944 199.642 455.643 193.301 452.78 188.342Z" fill="#F16D3E" fill-opacity="0.15"/>
<circle cx="293.778" cy="213.598" r="15.552" transform="rotate(-30 293.778 213.598)" fill="#333333" fill-opacity="0.2"/>
<path d="M62.208 413.838L5.184 315.07C2.32096 310.111 4.02001 303.77 8.97895 300.907L148.643 220.271C151.189 218.802 154.238 218.482 157.033 219.391L218.252 239.297C218.728 239.452 219.197 239.639 219.639 239.874C231.502 246.192 235.95 260.814 236.933 269.007C237.088 270.295 236.906 271.589 236.504 272.823L216.775 333.497C215.983 335.933 214.317 337.99 212.099 339.27L76.371 417.633C71.412 420.496 65.0711 418.797 62.208 413.838Z" fill="#F16D3E" fill-opacity="0.15"/>
<circle cx="186.022" cy="275.81" r="15.552" transform="rotate(-30 186.022 275.81)" fill="#333333" fill-opacity="0.2"/>
<circle cx="193.244" cy="163.894" r="15.552" transform="rotate(-30 193.244 163.894)" fill="#333333" fill-opacity="0.2"/>
<circle cx="281.371" cy="316.536" r="15.552" transform="rotate(-30 281.371 316.536)" fill="#333333" fill-opacity="0.2"/>
</svg>
