<svg width="479" height="480" viewBox="0 0 479 480" fill="none" xmlns="http://www.w3.org/2000/svg">
<path d="M238.717 184.089L211.353 286.215C210.403 289.759 206.76 291.862 203.216 290.913L82.9553 258.689C80.9741 258.158 79.3492 256.742 78.5526 254.852L57.2991 204.425C54.2164 192.862 60.6678 180.195 64.8703 174.426C65.3372 173.785 65.9398 173.263 66.6182 172.853L112.013 145.377C113.562 144.44 115.425 144.175 117.173 144.644L234.019 175.952C237.563 176.902 239.667 180.545 238.717 184.089Z" fill="#F16D3E" fill-opacity="0.1"/>
<ellipse cx="96.8801" cy="201.369" rx="13.7321" ry="13.7326" transform="rotate(-165 96.8801 201.369)" fill="#333333" fill-opacity="0.1"/>
<path d="M294.047 239.485L191.922 212.12C188.377 211.171 186.274 207.528 187.224 203.983L219.447 83.7231C219.978 81.7419 221.394 80.117 223.284 79.3204L273.712 58.0669C285.274 54.9842 297.942 61.4356 303.71 65.6381C304.351 66.105 304.873 66.7076 305.284 67.386L332.759 112.781C333.696 114.329 333.961 116.193 333.493 117.941L302.184 234.787C301.234 238.331 297.591 240.435 294.047 239.485Z" fill="#F16D3E" fill-opacity="0.1"/>
<ellipse cx="276.772" cy="97.6548" rx="13.7321" ry="13.7326" transform="rotate(-75 276.772 97.6548)" fill="#333333" fill-opacity="0.1"/>
<path d="M287.367 268.352L185.242 240.987C181.698 240.037 178.055 242.141 177.105 245.685L144.881 365.945C144.35 367.927 144.764 370.042 146.003 371.677L179.048 415.297C187.52 423.747 201.716 424.494 208.813 423.739C209.601 423.655 210.354 423.394 211.049 423.012L257.541 397.436C259.127 396.564 260.288 395.083 260.756 393.335L292.065 276.489C293.015 272.944 290.912 269.301 287.367 268.352Z" fill="#F16D3E" fill-opacity="0.1"/>
<ellipse cx="13.7321" cy="13.7326" rx="13.7321" ry="13.7326" transform="matrix(-0.258819 0.965926 0.965926 0.258819 191.772 365.722)" fill="#333333" fill-opacity="0.1"/>
<path d="M267.074 192.736L239.71 294.862C238.76 298.406 240.864 302.049 244.408 302.999L364.668 335.223C366.649 335.753 368.765 335.339 370.4 334.101L414.019 301.056C422.47 292.584 423.217 278.388 422.462 271.291C422.378 270.503 422.117 269.749 421.735 269.055L396.159 222.562C395.287 220.977 393.806 219.816 392.058 219.347L275.211 188.038C271.667 187.089 268.024 189.192 267.074 192.736Z" fill="#F16D3E" fill-opacity="0.1"/>
<ellipse cx="13.7321" cy="13.7326" rx="13.7321" ry="13.7326" transform="matrix(0.965926 0.258819 0.258819 -0.965926 364.44 288.327)" fill="#333333" fill-opacity="0.1"/>
</svg>
