<svg width="300" height="300" viewBox="0 0 300 300" fill="none" xmlns="http://www.w3.org/2000/svg">
<path d="M103.745 6.9264L166.149 0.5772C169.282 0.258421 172.081 2.53994 172.399 5.67312L181.378 93.9163C181.541 95.5246 181.015 97.1267 179.929 98.3242L156.144 124.552C155.959 124.756 155.76 124.948 155.542 125.117C149.699 129.645 141.36 128.581 137.029 127.228C136.348 127.015 135.739 126.632 135.211 126.153L109.217 102.58C108.173 101.634 107.517 100.334 107.374 98.933L98.649 13.1767C98.3302 10.0435 100.612 7.24518 103.745 6.9264Z" fill="#3B3EA5" fill-opacity="0.1"/>
<circle cx="145.098" cy="100.163" r="8.5536" transform="rotate(84.1905 145.098 100.163)" fill="#333333" fill-opacity="0.1"/>
<path d="M195.859 292.67L133.455 299.019C130.322 299.338 127.523 297.056 127.205 293.923L118.226 205.68C118.063 204.071 118.589 202.469 119.675 201.272L143.46 175.044C143.645 174.84 143.844 174.648 144.062 174.479C149.905 169.951 158.244 171.015 162.575 172.368C163.256 172.581 163.865 172.964 164.393 173.443L190.387 197.016C191.431 197.962 192.087 199.261 192.23 200.663L200.955 286.419C201.274 289.552 198.992 292.351 195.859 292.67Z" fill="#3B3EA5" fill-opacity="0.1"/>
<circle cx="154.512" cy="199.432" r="8.5536" transform="rotate(-95.8095 154.512 199.432)" fill="#333333" fill-opacity="0.1"/>
<path d="M6.92641 195.861L0.577201 133.457C0.258421 130.324 2.53994 127.526 5.67312 127.207L93.9163 118.229C95.5246 118.065 97.1267 118.592 98.3242 119.678L124.552 143.462C124.756 143.647 124.948 143.846 125.117 144.064C129.645 149.907 128.581 158.246 127.228 162.578C127.015 163.259 126.632 163.867 126.153 164.396L102.58 190.39C101.634 191.433 100.334 192.089 98.933 192.232L13.1767 200.957C10.0435 201.276 7.24518 198.994 6.92641 195.861Z" fill="#3B3EA5" fill-opacity="0.1"/>
<circle cx="100.163" cy="154.513" r="8.5536" transform="rotate(-5.80946 100.163 154.513)" fill="#333333" fill-opacity="0.1"/>
<path d="M292.682 103.734L299.032 166.138C299.35 169.271 297.069 172.07 293.936 172.389L205.693 181.367C204.084 181.53 202.482 181.004 201.285 179.918L175.057 156.134C174.853 155.949 174.661 155.749 174.492 155.532C169.964 149.688 171.028 141.35 172.381 137.018C172.594 136.337 172.977 135.728 173.456 135.2L197.029 109.206C197.975 108.162 199.274 107.506 200.676 107.363L286.432 98.6381C289.565 98.3194 292.364 100.601 292.682 103.734Z" fill="#3B3EA5" fill-opacity="0.1"/>
<circle cx="199.435" cy="145.083" r="8.5536" transform="rotate(174.191 199.435 145.083)" fill="#333333" fill-opacity="0.1"/>
<path d="M16.2068 81.3392L55.8437 32.7232C57.8337 30.2823 61.4258 29.9169 63.8667 31.9069L132.613 87.9558C133.865 88.9773 134.626 90.4826 134.705 92.0972L136.432 127.461C136.446 127.736 136.441 128.013 136.406 128.286C135.476 135.62 128.828 140.764 124.808 142.87C124.176 143.201 123.475 143.36 122.762 143.395L87.7131 145.107C86.306 145.176 84.9233 144.722 83.8315 143.831L17.0231 89.3622C14.5822 87.3722 14.2167 83.7801 16.2068 81.3392Z" fill="#3B3EA5" fill-opacity="0.1"/>
<circle cx="111.364" cy="118.032" r="8.5536" transform="rotate(39.1905 111.364 118.032)" fill="#333333" fill-opacity="0.1"/>
<path d="M283.401 218.256L243.764 266.872C241.774 269.313 238.182 269.679 235.741 267.689L166.995 211.64C165.742 210.618 164.982 209.113 164.903 207.498L163.175 172.135C163.162 171.86 163.167 171.583 163.201 171.309C164.131 163.976 170.78 158.831 174.8 156.726C175.432 156.394 176.133 156.235 176.846 156.2L211.895 154.488C213.302 154.419 214.684 154.874 215.776 155.764L282.585 210.233C285.026 212.223 285.391 215.815 283.401 218.256Z" fill="#3B3EA5" fill-opacity="0.1"/>
<circle cx="188.237" cy="181.565" r="8.5536" transform="rotate(-140.809 188.237 181.565)" fill="#333333" fill-opacity="0.1"/>
<path d="M81.3491 283.401L32.7331 243.764C30.2922 241.774 29.9268 238.182 31.9168 235.741L87.9657 166.995C88.9872 165.742 90.4925 164.982 92.1071 164.903L127.471 163.176C127.746 163.162 128.023 163.167 128.296 163.201C135.63 164.132 140.774 170.78 142.88 174.8C143.211 175.432 143.37 176.133 143.405 176.846L145.117 211.895C145.186 213.302 144.732 214.685 143.841 215.776L89.3721 282.585C87.3821 285.026 83.79 285.391 81.3491 283.401Z" fill="#3B3EA5" fill-opacity="0.1"/>
<circle cx="118.045" cy="188.235" r="8.5536" transform="rotate(-50.8095 118.045 188.235)" fill="#333333" fill-opacity="0.1"/>
<path d="M218.26 16.1942L266.876 55.8311C269.317 57.8212 269.682 61.4132 267.692 63.8541L211.643 132.6C210.622 133.853 209.116 134.613 207.502 134.692L172.138 136.42C171.863 136.433 171.586 136.429 171.313 136.394C163.979 135.464 158.835 128.815 156.729 124.795C156.398 124.163 156.239 123.462 156.204 122.75L154.492 87.7005C154.423 86.2935 154.877 84.9108 155.768 83.8189L210.237 17.0105C212.227 14.5696 215.819 14.2041 218.26 16.1942Z" fill="#3B3EA5" fill-opacity="0.1"/>
<circle cx="181.559" cy="111.361" r="8.5536" transform="rotate(129.191 181.559 111.361)" fill="#333333" fill-opacity="0.1"/>
<path d="M103.745 6.9264L166.15 0.5772C169.283 0.258421 172.081 2.53994 172.4 5.67312L181.378 93.9163C181.542 95.5246 181.015 97.1267 179.929 98.3242L156.145 124.552C155.96 124.756 155.761 124.948 155.543 125.117C149.7 129.645 141.361 128.581 137.029 127.228C136.348 127.015 135.74 126.632 135.211 126.153L109.217 102.58C108.174 101.634 107.517 100.334 107.375 98.933L98.6495 13.1767C98.3307 10.0435 100.612 7.24518 103.745 6.9264Z" fill="#3B3EA5" fill-opacity="0.1"/>
<circle cx="145.098" cy="100.163" r="8.5536" transform="rotate(84.1905 145.098 100.163)" fill="#333333" fill-opacity="0.1"/>
<path d="M195.859 292.67L133.455 299.019C130.322 299.338 127.523 297.056 127.205 293.923L118.226 205.68C118.063 204.071 118.589 202.469 119.675 201.272L143.46 175.044C143.645 174.84 143.844 174.648 144.062 174.479C149.905 169.951 158.244 171.015 162.575 172.368C163.256 172.581 163.865 172.964 164.393 173.443L190.387 197.016C191.431 197.962 192.087 199.261 192.23 200.663L200.955 286.419C201.274 289.552 198.992 292.351 195.859 292.67Z" fill="#3B3EA5" fill-opacity="0.1"/>
<circle cx="154.512" cy="199.432" r="8.5536" transform="rotate(-95.8095 154.512 199.432)" fill="#333333" fill-opacity="0.1"/>
<path d="M6.92641 195.861L0.577201 133.457C0.258421 130.324 2.53994 127.526 5.67312 127.207L93.9163 118.229C95.5246 118.065 97.1267 118.592 98.3242 119.678L124.552 143.462C124.756 143.647 124.948 143.846 125.117 144.064C129.645 149.907 128.581 158.246 127.228 162.578C127.015 163.259 126.632 163.867 126.153 164.396L102.58 190.39C101.634 191.433 100.334 192.089 98.933 192.232L13.1767 200.957C10.0435 201.276 7.24518 198.994 6.92641 195.861Z" fill="#3B3EA5" fill-opacity="0.1"/>
<circle cx="100.163" cy="154.513" r="8.5536" transform="rotate(-5.80946 100.163 154.513)" fill="#333333" fill-opacity="0.1"/>
<path d="M292.682 103.734L299.032 166.138C299.35 169.271 297.069 172.07 293.936 172.389L205.693 181.367C204.084 181.53 202.482 181.004 201.285 179.918L175.057 156.134C174.853 155.949 174.661 155.749 174.492 155.532C169.964 149.688 171.028 141.35 172.381 137.018C172.594 136.337 172.977 135.728 173.456 135.2L197.029 109.206C197.975 108.162 199.274 107.506 200.676 107.363L286.432 98.6381C289.565 98.3194 292.364 100.601 292.682 103.734Z" fill="#3B3EA5" fill-opacity="0.1"/>
<circle cx="199.435" cy="145.083" r="8.5536" transform="rotate(174.191 199.435 145.083)" fill="#333333" fill-opacity="0.1"/>
<path d="M16.2068 81.3392L55.8437 32.7232C57.8337 30.2823 61.4258 29.9169 63.8667 31.9069L132.613 87.9558C133.865 88.9773 134.626 90.4826 134.705 92.0972L136.432 127.461C136.446 127.736 136.441 128.013 136.406 128.286C135.476 135.62 128.828 140.764 124.808 142.87C124.176 143.201 123.475 143.36 122.762 143.395L87.7131 145.107C86.306 145.176 84.9233 144.722 83.8315 143.831L17.0231 89.3622C14.5822 87.3722 14.2167 83.7801 16.2068 81.3392Z" fill="#3B3EA5" fill-opacity="0.1"/>
<circle cx="111.364" cy="118.032" r="8.5536" transform="rotate(39.1905 111.364 118.032)" fill="#333333" fill-opacity="0.1"/>
<path d="M283.401 218.256L243.764 266.872C241.774 269.313 238.182 269.679 235.741 267.689L166.995 211.64C165.742 210.618 164.982 209.113 164.903 207.498L163.175 172.135C163.162 171.86 163.167 171.583 163.201 171.309C164.131 163.976 170.78 158.831 174.8 156.726C175.432 156.394 176.133 156.235 176.846 156.2L211.895 154.488C213.302 154.419 214.684 154.874 215.776 155.764L282.585 210.233C285.026 212.223 285.391 215.815 283.401 218.256Z" fill="#3B3EA5" fill-opacity="0.1"/>
<circle cx="188.237" cy="181.565" r="8.5536" transform="rotate(-140.809 188.237 181.565)" fill="#333333" fill-opacity="0.1"/>
<path d="M81.3491 283.401L32.7331 243.764C30.2922 241.774 29.9268 238.182 31.9168 235.741L87.9657 166.995C88.9872 165.742 90.4925 164.982 92.1071 164.903L127.471 163.176C127.746 163.162 128.023 163.167 128.296 163.201C135.63 164.132 140.774 170.78 142.88 174.8C143.211 175.432 143.37 176.133 143.405 176.846L145.117 211.895C145.186 213.302 144.732 214.685 143.841 215.776L89.3721 282.585C87.3821 285.026 83.79 285.391 81.3491 283.401Z" fill="#3B3EA5" fill-opacity="0.1"/>
<circle cx="118.045" cy="188.235" r="8.5536" transform="rotate(-50.8095 118.045 188.235)" fill="#333333" fill-opacity="0.1"/>
<path d="M218.26 16.1942L266.876 55.8311C269.317 57.8212 269.682 61.4132 267.692 63.8541L211.643 132.6C210.622 133.853 209.116 134.613 207.502 134.692L172.138 136.42C171.863 136.433 171.586 136.429 171.313 136.394C163.979 135.464 158.835 128.815 156.729 124.795C156.398 124.163 156.239 123.462 156.204 122.75L154.492 87.7005C154.423 86.2935 154.877 84.9108 155.768 83.8189L210.237 17.0105C212.227 14.5696 215.819 14.2041 218.26 16.1942Z" fill="#3B3EA5" fill-opacity="0.1"/>
<circle cx="181.559" cy="111.361" r="8.5536" transform="rotate(129.191 181.559 111.361)" fill="#333333" fill-opacity="0.1"/>
</svg>
